<svg width="26" height="26" viewBox="0 0 26 26" fill="#004137" xmlns="http://www.w3.org/2000/svg">
<path d="M13.1824 0.11438C6.27328 0.11438 0.682373 5.70529 0.682373 12.6144C0.682373 19.5235 6.27328 25.1144 13.1824 25.1144C20.0915 25.1144 25.6824 19.5235 25.6824 12.6144C25.6824 5.70529 20.0915 0.11438 13.1824 0.11438ZM18.546 12.7621L17.2392 14.0462C16.9437 14.3303 16.8074 14.7394 16.8756 15.1485L17.1824 16.9439C17.3642 17.9667 16.296 18.7394 15.3869 18.2621L13.7619 17.4098C13.3983 17.2167 12.9665 17.2167 12.6028 17.4098L10.9778 18.2621C10.0687 18.7394 9.00055 17.9668 9.18237 16.9439L9.48919 15.1485C9.55737 14.7394 9.42101 14.3303 9.12556 14.0462L7.81874 12.7621C7.0801 12.0462 7.48919 10.7962 8.51192 10.6371L10.3187 10.3757C10.7278 10.3189 11.0801 10.0689 11.2619 9.69393L12.0687 8.05756C12.5233 7.13711 13.8415 7.13711 14.296 8.05756L15.1028 9.69393C15.2846 10.0689 15.6369 10.3189 16.046 10.3757L17.8528 10.6371C18.8756 10.7962 19.2846 12.0462 18.546 12.7621Z" />
</svg>
