<svg width="9" height="9" viewBox="0 0 9 9" fill="none" xmlns="http://www.w3.org/2000/svg">
    <path fill-rule="evenodd" clip-rule="evenodd"
          d="M4.5 0C6.98484 0 9 2.01516 9 4.5C9 6.98485 6.98484 9 4.5 9C2.01516 9 0 6.98485 0 4.5C0 2.01516 2.01516 0 4.5 0ZM3.56552 5.96163L2.46381 4.85901C2.27612 4.67121 2.27608 4.36495 2.46381 4.17718C2.65158 3.98945 2.9592 3.99063 3.1456 4.17718L3.9223 4.95449L5.85447 3.02233C6.04224 2.83456 6.34853 2.83456 6.53626 3.02233C6.72403 3.21006 6.72376 3.51661 6.53626 3.70412L4.26265 5.97773C4.07515 6.16523 3.76859 6.1655 3.58085 5.97773C3.57558 5.97246 3.57049 5.9671 3.56552 5.96163Z"
          fill="#7AFB7F"/>
</svg>
