<svg width="11" height="11" viewBox="0 0 11 11" fill="#646464" xmlns="http://www.w3.org/2000/svg">
    <g clip-path="url(#clip0_1_810)">
        <path d="M1.6801 5.09291C1.49026 5.09344 1.30444 5.14771 1.14415 5.24945C0.983866 5.35118 0.855656 5.49621 0.774356 5.66777C0.693057 5.83932 0.66199 6.03039 0.684752 6.21887C0.707513 6.40735 0.783171 6.58553 0.902973 6.7328L3.45688 9.86133C3.54794 9.97439 3.66466 10.0641 3.79735 10.123C3.93004 10.1819 4.07487 10.2083 4.21981 10.2C4.5298 10.1833 4.80967 10.0175 4.9881 9.74485L10.2932 1.20098C10.2941 1.19957 10.295 1.19815 10.2959 1.19675C10.3457 1.12032 10.3296 0.968863 10.2268 0.873713C10.1986 0.847584 10.1653 0.827509 10.129 0.814726C10.0928 0.801942 10.0542 0.79672 10.0159 0.799382C9.9775 0.802043 9.94008 0.812532 9.90592 0.830201C9.87176 0.84787 9.84157 0.872347 9.81723 0.902123C9.81532 0.904464 9.81336 0.90677 9.81134 0.90904L4.46107 6.95405C4.44071 6.97705 4.41599 6.99578 4.38833 7.00915C4.36067 7.02251 4.33063 7.03025 4.29996 7.03191C4.26929 7.03357 4.23859 7.02912 4.20965 7.01881C4.18071 7.00851 4.15411 6.99255 4.13139 6.97188L2.35573 5.35602C2.17132 5.18697 1.93028 5.0931 1.6801 5.09291Z"
        />
    </g>
    <defs>
        <clipPath id="clip0_1_810">
            <rect width="11" height="11" fill="white"/>
        </clipPath>
    </defs>
</svg>
