<svg width="35" height="35" viewBox="0 0 35 35" fill="none" xmlns="http://www.w3.org/2000/svg">
<g clip-path="url(#clip0_1_5)">
<path d="M0.901256 25.5911C1.04435 25.919 1.02351 26.3185 1.22416 26.6062C1.33583 26.8277 1.62888 26.88 1.81024 26.7107C1.94277 26.5328 1.88864 26.2712 1.87464 26.0671C1.85193 25.9119 1.76296 25.8456 1.61644 25.8195C1.54489 25.6555 1.47335 25.4916 1.34425 25.3678C1.18373 25.1376 0.749448 25.3121 0.901256 25.5911Z" fill="white"/>
<path d="M3.43447 28.0586C3.62641 28.3952 3.86718 28.7405 4.11667 29.037C4.36616 29.3335 4.70462 29.6962 5.04651 29.7572C5.24187 29.792 5.3831 29.5652 5.254 29.4414C5.05336 29.1537 4.67134 29.0352 4.41314 28.7875C4.1061 28.5312 3.90545 28.2434 3.66467 27.8981C3.53557 27.7743 3.35421 27.9435 3.43447 28.0586Z" fill="white"/>
<path d="M7.62095 30.0148C7.2128 30.0428 6.76452 30.0132 6.32496 29.9348C6.17844 29.9087 6.13488 30.1529 6.2814 30.179C6.86749 30.2835 7.9874 30.7856 8.48266 30.2692C8.59776 30.189 8.47737 30.0163 8.37969 29.9989C8.13549 29.9553 7.87386 30.0095 7.62095 30.0148Z" fill="white"/>
<path d="M9.96481 27.6108C9.92311 28.4097 9.94768 29.1196 9.42629 29.7825C9.36003 29.8715 9.449 29.9377 9.51526 29.8488C10.1832 29.212 10.5755 28.4252 10.284 27.5165C10.2211 27.3038 9.9421 27.4556 9.96481 27.6108Z" fill="white"/>
<path d="M8.0522 23.6412C8.12904 24.0581 8.36982 24.4034 8.55304 24.7888C8.7764 25.2318 9.00847 25.626 9.28937 26.0288C9.36963 26.1439 9.59113 26.0323 9.51958 25.8683C9.2788 25.523 9.14442 25.1463 8.96119 24.7609C8.77796 24.3754 8.661 23.901 8.42022 23.5557C8.29983 23.383 7.98937 23.4285 8.0522 23.6412Z" fill="white"/>
<path d="M5.11934 19.7417C5.30443 20.6818 5.98664 21.6602 6.55716 22.4171C6.68626 22.5409 6.85892 22.4205 6.78737 22.2566C6.51517 21.8049 6.25168 21.3043 6.03704 20.8125C5.85381 20.427 5.72814 20.0015 5.48736 19.6562C5.31813 19.4748 5.09663 19.5865 5.11934 19.7417Z" fill="white"/>
<path d="M4.08745 15.0726C3.88181 15.943 4.0669 16.8831 4.22057 17.7168C4.24328 17.8721 4.44735 17.8581 4.47349 17.7116C4.37737 16.8377 4.42777 15.99 4.52702 15.151C4.52173 14.8981 4.131 14.8284 4.08745 15.0726Z" fill="white"/>
<path d="M6.28282 12.0878C5.94622 12.2797 5.5922 12.5693 5.29573 12.8188C5.05682 13.0282 5.2976 13.3735 5.57664 13.2217C5.86441 13.0209 6.201 12.8291 6.5376 12.6371C6.87421 12.4451 7.35731 12.2794 7.66249 11.9811C7.78631 11.852 7.67463 11.6305 7.47055 11.6445C7.07983 11.5748 6.62813 11.847 6.28282 12.0878Z" fill="white"/>
<path d="M9.08583 11.6303C8.89047 11.5954 8.82951 11.9372 9.02487 11.9721C9.50456 12.108 9.92671 12.2841 10.3977 12.469C10.8198 12.645 11.2158 12.9676 11.7042 13.0548C11.9484 13.0983 12.1071 12.7739 11.8803 12.6325C11.1284 12.0449 9.97367 11.7382 9.08583 11.6303Z" fill="white"/>
<path d="M13.6441 14.6102C13.9424 14.9155 14.2408 15.2206 14.5391 15.5258C14.8461 15.7821 15.127 16.1849 15.509 16.3036C15.7044 16.3384 15.7881 16.1517 15.7654 15.9965C15.6798 15.6285 15.2664 15.4036 14.9995 15.2048C14.6523 14.8909 14.2476 14.6171 13.9004 14.3033C13.6737 14.1619 13.4749 14.4288 13.6441 14.6102Z" fill="white"/>
<path d="M16.7739 17.6881C17.0862 18.1974 17.416 18.609 17.8033 18.9804C18.1906 19.3518 18.7558 19.8558 19.3105 19.8539C19.5634 19.8487 19.6558 19.6132 19.4866 19.4318C19.1882 19.1266 18.7085 18.9907 18.3439 18.7745C17.7927 18.4746 17.3164 18.0369 16.8977 17.559C16.8663 17.4526 16.6936 17.573 16.7739 17.6881Z" fill="white"/>
<path d="M21.0638 21.3257C21.3761 21.835 21.7547 22.2552 22.2397 22.6441C22.7246 23.033 23.3475 23.4968 23.951 23.5037C24.1551 23.4897 24.2074 23.1966 24.0695 23.1217C23.6822 22.7502 23.0961 22.6457 22.6425 22.3632C22.1402 22.072 21.6638 21.6343 21.2451 21.1565C21.1649 21.0414 20.9434 21.1531 21.0638 21.3257Z" fill="white"/>
<path d="M28.5276 22.7073C28.2713 23.0144 28.0725 23.2813 27.7359 23.4732C27.3016 23.6477 26.6981 23.6409 26.2586 23.5625C26.112 23.5363 26.0684 23.7805 26.215 23.8067C27.1256 24.0699 28.7721 24.1619 28.9498 22.8834C28.9358 22.6793 28.6602 22.5294 28.5276 22.7073Z" fill="white"/>
<path d="M31.1605 17.835C31.0158 18.3635 31.0176 18.9182 30.9218 19.4554C30.751 20.1305 30.4424 20.7306 29.9558 21.1981C29.8896 21.2871 30.0274 21.3621 30.0849 21.322C31.0493 20.4357 31.9857 19.1412 31.6749 17.7755C31.5719 17.5052 31.204 17.5908 31.1605 17.835Z" fill="white"/>
<path d="M28.5798 13.0913C28.7141 13.468 28.9549 13.8133 29.1294 14.2476C29.2638 14.6243 29.2918 15.0326 29.271 15.4319C29.2762 15.6849 29.6181 15.7459 29.6617 15.5016C29.8673 14.6312 29.7746 13.4556 29.0315 12.8191C28.8221 12.5801 28.5256 12.8297 28.5798 13.0913Z" fill="white"/>
<path d="M26.0064 10.5661C26.5281 11.3142 27.0899 12.1199 27.7929 12.6989C28.0111 12.889 28.2185 12.5732 28.0493 12.3919C27.4613 11.7327 27.1297 10.7664 26.3691 10.2275C26.1337 10.1352 25.846 10.3359 26.0064 10.5661Z" fill="white"/>
<path d="M26.7086 6.91169C26.3894 7.00594 26.1244 7.36182 25.9256 7.62874C25.7181 7.94449 25.5997 8.32651 25.53 8.71724C25.4864 8.96144 25.8282 9.0224 25.8718 8.7782C25.9328 8.43632 26.0828 8.16071 26.2816 7.8938C26.4717 7.67565 26.7507 7.52384 26.9407 7.30584C27.122 7.13659 26.9214 6.84893 26.7086 6.91169Z" fill="white"/>
<path d="M29.136 4.32106C27.8907 4.80448 26.5424 5.01756 25.2657 5.39459C24.6762 5.59181 25.0252 6.46037 25.606 6.31199C26.6612 6.04662 27.7566 5.83884 28.7891 5.41826C28.7595 5.86654 28.73 6.31481 28.6917 6.81193C28.7057 7.016 28.6447 7.35789 28.814 7.53927L28.8541 7.59673C28.8541 7.59673 28.8454 7.64557 28.8942 7.65428C28.9745 7.76938 29.1873 7.70654 29.2047 7.60886C29.2623 7.56873 29.271 7.51981 29.2884 7.42221C29.3807 7.18662 29.3755 6.9338 29.4278 6.64076C29.4922 5.99712 29.5478 5.40231 29.7099 4.77611C29.811 4.49185 29.4551 4.2268 29.136 4.32106Z" fill="white"/>
</g>
<defs>
<clipPath id="clip0_1_5">
<rect width="29.5941" height="29.5941" fill="white" transform="translate(0 29.1343) rotate(-79.8874)"/>
</clipPath>
</defs>
</svg>
