<svg width="13" height="17" viewBox="0 0 13 17" fill="none" xmlns="http://www.w3.org/2000/svg">
<path d="M10.8153 8.45114L5.89835 2.18479C5.54501 1.73427 5.54501 1.00393 5.89835 0.55359C6.2517 0.103068 6.8247 0.103068 7.17819 0.55359L12.7351 7.63583C12.9118 7.86111 13 8.15605 13 8.45114C13 8.74633 12.9116 9.0415 12.7351 9.26667L7.17819 16.3488C6.8247 16.7996 6.25167 16.7996 5.89835 16.3488C5.54501 15.8985 5.54501 15.1681 5.89835 14.7178L10.8153 8.45114ZM0.265008 14.7178C-0.0883361 15.1681 -0.0883361 15.8985 0.265008 16.3488C0.618352 16.7996 1.19119 16.7996 1.54487 16.3488L7.10179 9.2667C7.27846 9.04153 7.36656 8.74637 7.36656 8.45117C7.36656 8.15609 7.27829 7.86093 7.10179 7.63587L1.54487 0.55359C1.19121 0.103068 0.618352 0.103068 0.265008 0.55359C-0.0883361 1.00393 -0.0883361 1.73423 0.265008 2.18479L5.18205 8.45114L0.265008 14.7178Z" fill="white"/>
</svg>
