<svg width="25" height="20" viewBox="0 0 25 20" fill="#004037" xmlns="http://www.w3.org/2000/svg">
    <path d="M12.6365 5.63214C13.0096 3.33088 11.4464 1.16292 9.14518 0.789872C6.84392 0.416821 4.67596 1.97994 4.30291 4.2812C3.92986 6.58246 5.49298 8.75042 7.79424 9.12347C10.0955 9.49652 12.2635 7.9334 12.6365 5.63214Z"
          />
    <path d="M4.34546 10.8547H12.5955C14.6257 10.8547 16.2585 12.4983 16.2585 14.5178V17.343C16.2585 18.3206 15.4636 19.1155 14.4861 19.1155H2.45483C1.47729 19.1155 0.682373 18.3206 0.682373 17.343V14.5178C0.682373 12.4983 2.32593 10.8547 4.34546 10.8547Z"
         />
    <path d="M22.8113 5.32251H21.6834V4.19458C21.6834 3.30298 20.9636 2.58325 20.072 2.58325C19.1804 2.58325 18.4607 3.30298 18.4607 4.19458V5.32251H17.322C16.4304 5.32251 15.7107 6.04224 15.7107 6.93384C15.7107 7.82544 16.4304 8.54517 17.322 8.54517H18.45V9.68384C18.45 10.5754 19.1697 11.2952 20.0613 11.2952C20.9529 11.2952 21.6726 10.5754 21.6726 9.68384V8.55591H22.8005C23.6921 8.55591 24.4119 7.83618 24.4119 6.94458C24.4226 6.04224 23.7029 5.32251 22.8113 5.32251Z"/>
</svg>
