<svg width="110" height="108" viewBox="0 0 110 108" fill="none" xmlns="http://www.w3.org/2000/svg">
    <g filter="url(#filter0_d_1_182)">
        <circle cx="54.6858" cy="51.2017" r="26.9551" fill="url(#paint0_radial_1_182)"/>
        <path d="M80.0073 50.8858C80.0073 64.696 74.0418 46.7182 60.0571 46.7182C46.0724 46.7182 29.3644 64.696 29.3644 50.8858C29.3644 37.0756 40.7012 25.8802 54.6859 25.8802C68.6705 25.8802 80.0073 37.0756 80.0073 50.8858Z"
              fill="url(#paint1_linear_1_182)" fill-opacity="0.25"/>
        <path d="M72.6149 65.2538C69.3476 61.0063 50.5607 61.5781 41.5757 62.3949C37.655 62.6759 35.4496 65.9047 37.4916 67.9467C48.9271 83.8748 76.699 70.5631 72.6149 65.2538Z"
              fill="url(#paint2_linear_1_182)"/>
        <path d="M70.2054 34.8652C70.2054 39.3764 58.4656 43.0335 53.0522 43.0335C47.6387 43.0335 38.3494 39.3764 38.3494 34.8652C38.3494 30.3541 48.4556 26.697 53.869 26.697C59.2824 26.697 70.2054 30.3541 70.2054 34.8652Z"
              fill="url(#paint3_linear_1_182)"/>
        <path d="M67.7761 50.1514H65.9636V48.2996C65.9636 47.744 65.6011 47.3736 65.0574 47.3736H63.2449V45.5218C63.2449 44.9662 62.8824 44.5959 62.3386 44.5959H60.5261V42.744H62.3386C62.8824 42.744 63.2449 42.3736 63.2449 41.8181V39.0403C63.2449 38.4848 62.8824 38.1144 62.3386 38.1144H59.6199C59.0761 38.1144 58.7136 38.4848 58.7136 39.0403V40.8922H56.9011C56.3574 40.8922 55.9949 41.2625 55.9949 41.8181V44.5959H52.3699V41.8181C52.3699 41.2625 52.0074 40.8922 51.4636 40.8922H49.6511V39.0403C49.6511 38.4848 49.2886 38.1144 48.7449 38.1144H46.0261C45.4824 38.1144 45.1199 38.4848 45.1199 39.0403V41.8181C45.1199 42.3736 45.4824 42.744 46.0261 42.744H47.8386V44.5959H46.0261C45.4824 44.5959 45.1199 44.9662 45.1199 45.5218V47.3736H43.3074C42.7636 47.3736 42.4011 47.744 42.4011 48.2996V50.1514H40.5886C40.0449 50.1514 39.6824 50.5218 39.6824 51.0773V59.4107C39.6824 59.9662 40.0449 60.3366 40.5886 60.3366H43.3074C43.8511 60.3366 44.2136 59.9662 44.2136 59.4107V54.781H45.1199V59.4107C45.1199 59.9662 45.4824 60.3366 46.0261 60.3366H47.8386V62.1885C47.8386 62.744 48.2011 63.1144 48.7449 63.1144H52.3699C52.9136 63.1144 53.2761 62.744 53.2761 62.1885V59.4107C53.2761 58.8551 52.9136 58.4848 52.3699 58.4848H49.6511V57.5588H58.7136V58.4848H55.9949C55.4511 58.4848 55.0886 58.8551 55.0886 59.4107V62.1885C55.0886 62.744 55.4511 63.1144 55.9949 63.1144H59.6199C60.1636 63.1144 60.5261 62.744 60.5261 62.1885V60.3366H62.3386C62.8824 60.3366 63.2449 59.9662 63.2449 59.4107V54.781H64.1511V59.4107C64.1511 59.9662 64.5136 60.3366 65.0574 60.3366H67.7761C68.3199 60.3366 68.6824 59.9662 68.6824 59.4107V51.0773C68.6824 50.5218 68.3199 50.1514 67.7761 50.1514ZM52.3699 52.9292C52.3699 53.4847 52.0074 53.8551 51.4636 53.8551H48.7449C48.2011 53.8551 47.8386 53.4847 47.8386 52.9292V50.1514C47.8386 49.5959 48.2011 49.2255 48.7449 49.2255H51.4636C52.0074 49.2255 52.3699 49.5959 52.3699 50.1514V52.9292ZM60.5261 52.9292C60.5261 53.4847 60.1636 53.8551 59.6199 53.8551H56.9011C56.3574 53.8551 55.9949 53.4847 55.9949 52.9292V50.1514C55.9949 49.5959 56.3574 49.2255 56.9011 49.2255H59.6199C60.1636 49.2255 60.5261 49.5959 60.5261 50.1514V52.9292Z"
              fill="white"/>
    </g>
    <defs>
        <filter id="filter0_d_1_182" x="0.360891" y="0.194315" width="108.65" height="108.65"
                filterUnits="userSpaceOnUse" color-interpolation-filters="sRGB">
            <feFlood flood-opacity="0" result="BackgroundImageFix"/>
            <feColorMatrix in="SourceAlpha" type="matrix" values="0 0 0 0 0 0 0 0 0 0 0 0 0 0 0 0 0 0 127 0"
                           result="hardAlpha"/>
            <feOffset dy="3.31755"/>
            <feGaussianBlur stdDeviation="13.6849"/>
            <feComposite in2="hardAlpha" operator="out"/>
            <feColorMatrix type="matrix" values="0 0 0 0 0.0509804 0 0 0 0 0.87451 0 0 0 0 0.756863 0 0 0 0.49 0"/>
            <feBlend mode="normal" in2="BackgroundImageFix" result="effect1_dropShadow_1_182"/>
            <feBlend mode="normal" in="SourceGraphic" in2="effect1_dropShadow_1_182" result="shape"/>
        </filter>
        <radialGradient id="paint0_radial_1_182" cx="0" cy="0" r="1" gradientUnits="userSpaceOnUse"
                        gradientTransform="translate(54.6858 51.2017) rotate(84.8056) scale(27.0663)">
            <stop stop-color="#0AFFDC"/>
            <stop offset="0.9999" stop-color="#00CAAD"/>
            <stop offset="1" stop-color="#01A78F"/>
        </radialGradient>
        <linearGradient id="paint1_linear_1_182" x1="29.3895" y1="33.7845" x2="54.6859" y2="56.1027"
                        gradientUnits="userSpaceOnUse">
            <stop stop-opacity="0"/>
            <stop offset="1" stop-color="#08FDDA"/>
        </linearGradient>
        <linearGradient id="paint2_linear_1_182" x1="51.3776" y1="61.8206" x2="65.2636" y2="88.7757"
                        gradientUnits="userSpaceOnUse">
            <stop stop-color="#04E3C3"/>
            <stop offset="1" stop-color="#04E3C3" stop-opacity="0"/>
        </linearGradient>
        <linearGradient id="paint3_linear_1_182" x1="54.2774" y1="26.697" x2="54.6858" y2="45.4839"
                        gradientUnits="userSpaceOnUse">
            <stop stop-color="#00FFDA"/>
            <stop offset="1" stop-color="#03DABB" stop-opacity="0"/>
        </linearGradient>
    </defs>
</svg>
