<svg width="30" height="26" viewBox="0 0 30 26" fill="white" xmlns="http://www.w3.org/2000/svg">
    <path d="M28.7761 12.1514H26.9636V10.2996C26.9636 9.74401 26.6011 9.37364 26.0574 9.37364H24.2449V7.52179C24.2449 6.96623 23.8824 6.59586 23.3386 6.59586H21.5261V4.74401H23.3386C23.8824 4.74401 24.2449 4.37364 24.2449 3.81808V1.04031C24.2449 0.48475 23.8824 0.11438 23.3386 0.11438H20.6199C20.0761 0.11438 19.7136 0.48475 19.7136 1.04031V2.89216H17.9011C17.3574 2.89216 16.9949 3.26253 16.9949 3.81808V6.59586H13.3699V3.81808C13.3699 3.26253 13.0074 2.89216 12.4636 2.89216H10.6511V1.04031C10.6511 0.48475 10.2886 0.11438 9.74487 0.11438H7.02612C6.48237 0.11438 6.11987 0.48475 6.11987 1.04031V3.81808C6.11987 4.37364 6.48237 4.74401 7.02612 4.74401H8.83862V6.59586H7.02612C6.48237 6.59586 6.11987 6.96623 6.11987 7.52179V9.37364H4.30737C3.76362 9.37364 3.40112 9.74401 3.40112 10.2996V12.1514H1.58862C1.04487 12.1514 0.682373 12.5218 0.682373 13.0773V21.4107C0.682373 21.9662 1.04487 22.3366 1.58862 22.3366H4.30737C4.85112 22.3366 5.21362 21.9662 5.21362 21.4107V16.781H6.11987V21.4107C6.11987 21.9662 6.48237 22.3366 7.02612 22.3366H8.83862V24.1885C8.83862 24.744 9.20112 25.1144 9.74487 25.1144H13.3699C13.9136 25.1144 14.2761 24.744 14.2761 24.1885V21.4107C14.2761 20.8551 13.9136 20.4848 13.3699 20.4848H10.6511V19.5588H19.7136V20.4848H16.9949C16.4511 20.4848 16.0886 20.8551 16.0886 21.4107V24.1885C16.0886 24.744 16.4511 25.1144 16.9949 25.1144H20.6199C21.1636 25.1144 21.5261 24.744 21.5261 24.1885V22.3366H23.3386C23.8824 22.3366 24.2449 21.9662 24.2449 21.4107V16.781H25.1511V21.4107C25.1511 21.9662 25.5136 22.3366 26.0574 22.3366H28.7761C29.3199 22.3366 29.6824 21.9662 29.6824 21.4107V13.0773C29.6824 12.5218 29.3199 12.1514 28.7761 12.1514ZM13.3699 14.9292C13.3699 15.4848 13.0074 15.8551 12.4636 15.8551H9.74487C9.20112 15.8551 8.83862 15.4848 8.83862 14.9292V12.1514C8.83862 11.5959 9.20112 11.2255 9.74487 11.2255H12.4636C13.0074 11.2255 13.3699 11.5959 13.3699 12.1514V14.9292ZM21.5261 14.9292C21.5261 15.4848 21.1636 15.8551 20.6199 15.8551H17.9011C17.3574 15.8551 16.9949 15.4848 16.9949 14.9292V12.1514C16.9949 11.5959 17.3574 11.2255 17.9011 11.2255H20.6199C21.1636 11.2255 21.5261 11.5959 21.5261 12.1514V14.9292Z"
    />
</svg>
