<svg width="78" height="80" viewBox="0 0 78 80" fill="none" xmlns="http://www.w3.org/2000/svg">
<g clip-path="url(#clip0_1_462)">
<g filter="url(#filter0_d_1_462)">
<path d="M51.1663 44.5751V50.703C51.1663 54.9311 47.7274 58.371 43.5003 58.371H38.4747C35.9705 58.371 33.949 57.1871 32.6288 54.9476C31.6117 53.2221 31.0264 50.8372 31.0231 48.4043V48.3373C31.0174 45.9405 32.8307 44.7156 34.1202 44.6117C34.34 44.5939 34.5438 44.6073 34.7264 44.6484V35.797C34.7264 34.453 35.8206 33.3595 37.1657 33.3595C38.5108 33.3595 39.6031 34.453 39.6031 35.797V40.8952C40.02 40.5627 40.5478 40.3638 41.1213 40.3638C42.1092 40.3638 42.9618 40.9541 43.3449 41.8004C43.7874 41.353 44.4013 41.0753 45.0788 41.0753C46.1823 41.0753 47.117 41.8131 47.4161 42.8217C47.813 42.4896 48.3239 42.2894 48.8807 42.2894C50.141 42.2894 51.1663 43.3147 51.1663 44.5751V44.5751ZM32.366 38.3391C32.8814 38.162 33.1557 37.6005 32.9786 37.0849C32.8203 36.6242 32.74 36.1404 32.74 35.647C32.74 33.2057 34.7254 31.2195 37.1657 31.2195C39.606 31.2195 41.5914 33.2057 41.5914 35.647C41.5914 36.1405 41.5111 36.6243 41.3529 37.0849C41.1757 37.6004 41.45 38.1619 41.9655 38.3391C42.0717 38.3756 42.1799 38.3929 42.2863 38.3929C42.6961 38.3929 43.079 38.1357 43.2196 37.7265C43.4491 37.059 43.5653 36.3593 43.5653 35.647C43.5653 32.1172 40.6945 29.2456 37.1658 29.2456C33.637 29.2456 30.7662 32.1172 30.7662 35.647C30.7662 36.3592 30.8825 37.0588 31.112 37.7265C31.2891 38.242 31.8506 38.5161 32.3661 38.3391H32.366ZM29.2283 35.647C29.2283 31.2704 32.7891 27.7097 37.1657 27.7097C41.5424 27.7097 45.1031 31.2703 45.1031 35.647C45.1031 36.4297 44.9884 37.2046 44.7623 37.9502C44.6041 38.4719 44.8988 39.0229 45.4203 39.1812C45.5158 39.2101 45.6123 39.2239 45.7071 39.2239C46.1305 39.2239 46.522 38.9492 46.6512 38.5231C46.9336 37.5916 47.0769 36.6239 47.0769 35.647C47.0769 30.182 42.6307 25.7358 37.1656 25.7358C31.7006 25.7358 27.2545 30.182 27.2545 35.6471C27.2545 36.6281 27.397 37.5958 27.6783 38.5231C27.8364 39.0448 28.3875 39.3394 28.9092 39.1812C29.4308 39.023 29.7254 38.4719 29.5672 37.9502C29.3424 37.2087 29.2283 36.4338 29.2283 35.647Z" fill="white"/>
</g>
</g>
<defs>
<filter id="filter0_d_1_462" x="23.9369" y="19.1007" width="35.5233" height="44.2466" filterUnits="userSpaceOnUse" color-interpolation-filters="sRGB">
<feFlood flood-opacity="0" result="BackgroundImageFix"/>
<feColorMatrix in="SourceAlpha" type="matrix" values="0 0 0 0 0 0 0 0 0 0 0 0 0 0 0 0 0 0 127 0" result="hardAlpha"/>
<feOffset dx="2.48817" dy="-0.829389"/>
<feGaussianBlur stdDeviation="2.90286"/>
<feComposite in2="hardAlpha" operator="out"/>
<feColorMatrix type="matrix" values="0 0 0 0 1 0 0 0 0 1 0 0 0 0 1 0 0 0 0.69 0"/>
<feBlend mode="normal" in2="BackgroundImageFix" result="effect1_dropShadow_1_462"/>
<feBlend mode="normal" in="SourceGraphic" in2="effect1_dropShadow_1_462" result="shape"/>
</filter>
<clipPath id="clip0_1_462">
<rect width="51.839" height="59.2916" fill="white" transform="translate(0 33.0203) rotate(-38.9459)"/>
</clipPath>
</defs>
</svg>
