<svg width="27" height="20" viewBox="0 0 27 20" fill="#004037" xmlns="http://www.w3.org/2000/svg">
<path d="M23.5039 0C21.6718 0 20.1863 1.48543 20.1863 3.31755C20.1863 4.07479 20.4501 4.76484 20.8772 5.32302L15.8022 13.3299C15.6089 13.2951 15.4124 13.2702 15.21 13.2702C15.0051 13.2702 14.8069 13.2951 14.612 13.3299L12.1015 9.38453C12.4888 8.84211 12.7218 8.18192 12.7218 7.4645C12.7218 5.63238 11.2364 4.14694 9.40428 4.14694C7.57216 4.14694 6.08673 5.63238 6.08673 7.4645C6.08673 8.18192 6.31978 8.84211 6.70711 9.38453L4.19655 13.3299C4.00164 13.2951 3.80342 13.2702 3.59856 13.2702C1.76644 13.2702 0.281006 14.7557 0.281006 16.5878C0.281006 18.4199 1.76644 19.9053 3.59856 19.9053C5.43068 19.9053 6.91611 18.4199 6.91611 16.5878C6.91611 15.8703 6.68306 15.2102 6.29573 14.6677L8.80629 10.7223C9.0012 10.7572 9.19942 10.7821 9.40428 10.7821C9.60914 10.7821 9.80736 10.7572 10.0023 10.7223L12.5128 14.6677C12.1255 15.2102 11.8924 15.8703 11.8924 16.5878C11.8924 18.4199 13.3779 19.9053 15.21 19.9053C17.0421 19.9053 18.5276 18.4199 18.5276 16.5878C18.5276 15.8687 18.2928 15.2068 17.903 14.6636L23.0228 6.587C23.1813 6.61023 23.3397 6.63511 23.5039 6.63511C25.336 6.63511 26.8214 5.14967 26.8214 3.31755C26.8214 1.48543 25.336 0 23.5039 0Z" />
</svg>
