<svg width="17" height="15" viewBox="0 0 17 15" fill="none" xmlns="http://www.w3.org/2000/svg">
<path d="M16.1744 7.10081H15.1826V6.10896C15.1826 5.81141 14.9842 5.61304 14.6866 5.61304H13.6948V4.62119C13.6948 4.32364 13.4964 4.12527 13.1989 4.12527H12.207V3.13342H13.1989C13.4964 3.13342 13.6948 2.93506 13.6948 2.6375V1.14973C13.6948 0.852178 13.4964 0.653809 13.1989 0.653809H11.7111C11.4135 0.653809 11.2152 0.852178 11.2152 1.14973V2.14158H10.2233C9.92577 2.14158 9.7274 2.33995 9.7274 2.6375V4.12527H7.74371V2.6375C7.74371 2.33995 7.54534 2.14158 7.24778 2.14158H6.25594V1.14973C6.25594 0.852178 6.05757 0.653809 5.76001 0.653809H4.27224C3.97469 0.653809 3.77632 0.852178 3.77632 1.14973V2.6375C3.77632 2.93506 3.97469 3.13342 4.27224 3.13342H5.26409V4.12527H4.27224C3.97469 4.12527 3.77632 4.32364 3.77632 4.62119V5.61304H2.78447C2.48692 5.61304 2.28855 5.81141 2.28855 6.10896V7.10081H1.2967C0.999151 7.10081 0.800781 7.29918 0.800781 7.59673V12.06C0.800781 12.3576 0.999151 12.556 1.2967 12.556H2.78447C3.08203 12.556 3.2804 12.3576 3.2804 12.06V9.58043H3.77632V12.06C3.77632 12.3576 3.97469 12.556 4.27224 12.556H5.26409V13.5478C5.26409 13.8454 5.46246 14.0437 5.76001 14.0437H7.74371C8.04126 14.0437 8.23963 13.8454 8.23963 13.5478V12.06C8.23963 11.7625 8.04126 11.5641 7.74371 11.5641H6.25594V11.0682H11.2152V11.5641H9.7274C9.42985 11.5641 9.23148 11.7625 9.23148 12.06V13.5478C9.23148 13.8454 9.42985 14.0437 9.7274 14.0437H11.7111C12.0086 14.0437 12.207 13.8454 12.207 13.5478V12.556H13.1989C13.4964 12.556 13.6948 12.3576 13.6948 12.06V9.58043H14.1907V12.06C14.1907 12.3576 14.3891 12.556 14.6866 12.556H16.1744C16.472 12.556 16.6703 12.3576 16.6703 12.06V7.59673C16.6703 7.29918 16.472 7.10081 16.1744 7.10081ZM7.74371 8.58858C7.74371 8.88613 7.54534 9.0845 7.24778 9.0845H5.76001C5.46246 9.0845 5.26409 8.88613 5.26409 8.58858V7.10081C5.26409 6.80326 5.46246 6.60489 5.76001 6.60489H7.24778C7.54534 6.60489 7.74371 6.80326 7.74371 7.10081V8.58858ZM12.207 8.58858C12.207 8.88613 12.0086 9.0845 11.7111 9.0845H10.2233C9.92577 9.0845 9.7274 8.88613 9.7274 8.58858V7.10081C9.7274 6.80326 9.92577 6.60489 10.2233 6.60489H11.7111C12.0086 6.60489 12.207 6.80326 12.207 7.10081V8.58858Z" fill="white"/>
</svg>
