<svg width="18" height="18" viewBox="0 0 18 18" fill="none" xmlns="http://www.w3.org/2000/svg">
    <g clip-path="url(#clip0_1_1546)">
        <path d="M11.1207 7.05235C11.1697 7.07712 11.2249 7.08702 11.2794 7.08083C11.3339 7.07464 11.3855 7.05263 11.4276 7.01751L17.6174 1.8648C17.6587 1.83043 17.6893 1.78495 17.7056 1.73375C17.7218 1.68254 17.7231 1.62775 17.7092 1.57586C17.6953 1.52397 17.6668 1.47714 17.6271 1.44093C17.5874 1.40471 17.5382 1.38061 17.4853 1.37149L9.54845 0.00408891C9.49437 -0.00523526 9.43874 0.001468 9.38842 0.0233726C9.3381 0.0452772 9.29528 0.081426 9.26525 0.127364C9.23523 0.173302 9.21929 0.227022 9.21942 0.281904C9.21955 0.336786 9.23573 0.390432 9.26597 0.43623L11.1745 3.32681L10.9671 6.78443C10.9638 6.83921 10.9766 6.89376 11.0039 6.94137C11.0312 6.98897 11.0718 7.02755 11.1207 7.05235ZM10.0936 0.668788L16.7892 1.82237L11.5674 6.16919L11.7294 3.46919L14.2501 2.79377C14.2859 2.78432 14.3195 2.7679 14.3489 2.74545C14.3784 2.72299 14.4031 2.69495 14.4217 2.66292C14.4402 2.6309 14.4523 2.59552 14.4572 2.55882C14.462 2.52212 14.4596 2.48482 14.45 2.44906C14.4405 2.41331 14.4239 2.37979 14.4013 2.35044C14.3788 2.32109 14.3506 2.29648 14.3186 2.27802C14.2865 2.25957 14.251 2.24763 14.2143 2.2429C14.1776 2.23816 14.1403 2.24072 14.1046 2.25043L11.584 2.92592L10.0936 0.668788Z"
              fill="white"/>
        <path d="M5.34375 11.5312V16.5938C5.34417 16.9666 5.49246 17.324 5.75609 17.5877C6.01973 17.8513 6.37717 17.9996 6.75 18H14.0625C14.4353 17.9996 14.7928 17.8513 15.0564 17.5877C15.32 17.324 15.4683 16.9666 15.4688 16.5938V11.5312C15.4683 11.1584 15.32 10.801 15.0564 10.5373C14.7928 10.2737 14.4353 10.1254 14.0625 10.125H6.75C6.37717 10.1254 6.01973 10.2737 5.75609 10.5373C5.49246 10.801 5.34417 11.1584 5.34375 11.5312ZM14.0625 17.4375H6.75C6.5263 17.4372 6.31184 17.3483 6.15367 17.1901C5.99549 17.0319 5.90651 16.8174 5.90625 16.5938V12.0483L9.6423 14.4657C9.86999 14.6127 10.1352 14.6909 10.4062 14.6909C10.6773 14.6909 10.9425 14.6127 11.1702 14.4657L14.9062 12.0483V16.5938C14.906 16.8174 14.817 17.0319 14.6588 17.1901C14.5007 17.3483 14.2862 17.4372 14.0625 17.4375ZM14.8936 11.3864L10.8647 13.9934C10.728 14.0816 10.5689 14.1285 10.4063 14.1285C10.2437 14.1285 10.0845 14.0816 9.94788 13.9934L5.91898 11.3864C5.95329 11.1909 6.05539 11.0136 6.20735 10.8858C6.35932 10.758 6.55144 10.6878 6.75 10.6875H14.0625C14.2611 10.6878 14.4532 10.758 14.6052 10.8858C14.7571 11.0136 14.8592 11.1909 14.8936 11.3864Z"
              fill="white"/>
        <path d="M7.37281 4.79804C7.4063 4.79807 7.43953 4.79212 7.47093 4.78046C7.71854 4.68825 7.97289 4.59765 8.22679 4.51159C8.26196 4.49987 8.29446 4.48133 8.32243 4.45701C8.3504 4.43269 8.37329 4.40309 8.38978 4.3699C8.40627 4.3367 8.41604 4.30058 8.41852 4.2636C8.42101 4.22662 8.41616 4.18951 8.40425 4.15442C8.39235 4.11932 8.37363 4.08692 8.34916 4.05908C8.32469 4.03124 8.29496 4.00851 8.26168 3.9922C8.2284 3.97589 8.19222 3.96632 8.15523 3.96403C8.11824 3.96175 8.08116 3.9668 8.04612 3.9789C7.78685 4.06679 7.52722 4.15918 7.27444 4.25333C7.21257 4.2763 7.16074 4.32029 7.12803 4.37761C7.09532 4.43494 7.08382 4.50194 7.09553 4.56689C7.10723 4.63185 7.14141 4.69061 7.19208 4.73291C7.24274 4.7752 7.30667 4.79833 7.37267 4.79825L7.37281 4.79804Z"
              fill="white"/>
        <path d="M1.5214 13.1717C1.49622 13.1988 1.47661 13.2305 1.46369 13.2651C1.45077 13.2997 1.44479 13.3365 1.4461 13.3734C1.4474 13.4103 1.45597 13.4466 1.4713 13.4802C1.48663 13.5138 1.50844 13.5441 1.53546 13.5693C1.74804 13.7672 1.98176 13.9411 2.2324 14.0879C2.29678 14.1256 2.37349 14.1362 2.44565 14.1173C2.51782 14.0984 2.57954 14.0517 2.61722 13.9873C2.6549 13.9229 2.66547 13.8462 2.64659 13.774C2.62772 13.7019 2.58094 13.6402 2.51657 13.6025C2.30163 13.4766 2.1012 13.3274 1.91891 13.1576C1.89188 13.1325 1.86016 13.1129 1.82556 13.0999C1.79096 13.087 1.75415 13.0811 1.71723 13.0824C1.68032 13.0837 1.64403 13.0922 1.61043 13.1076C1.57683 13.1229 1.54657 13.1447 1.5214 13.1717Z"
              fill="white"/>
        <path d="M8.94273 3.98363C8.95313 4.01908 8.97041 4.05213 8.9936 4.08089C9.01678 4.10965 9.04541 4.13356 9.07785 4.15124C9.11028 4.16893 9.14589 4.18004 9.18262 4.18395C9.21936 4.18787 9.2565 4.18449 9.29193 4.17403C9.63973 4.07162 9.90453 4.00149 10.0654 3.96067C10.1015 3.95189 10.1355 3.93604 10.1655 3.91403C10.1954 3.89202 10.2207 3.8643 10.2399 3.83245C10.2591 3.80061 10.2717 3.76528 10.2772 3.72851C10.2826 3.69174 10.2807 3.65425 10.2716 3.61822C10.2624 3.58219 10.2462 3.54833 10.2239 3.5186C10.2016 3.48886 10.1736 3.46385 10.1416 3.44499C10.1096 3.42614 10.0741 3.41382 10.0373 3.40875C10.0005 3.40369 9.963 3.40597 9.92707 3.41547C9.76148 3.45766 9.48934 3.52955 9.1331 3.63439C9.09767 3.64482 9.06464 3.66212 9.03589 3.68532C9.00715 3.70852 8.98326 3.73715 8.96558 3.76958C8.9479 3.80201 8.93678 3.8376 8.93286 3.87433C8.92894 3.91106 8.93229 3.9482 8.94273 3.98363Z"
              fill="white"/>
        <path d="M0.392945 9.76887C0.323645 10.0501 0.286331 10.3383 0.281711 10.628C0.280564 10.7026 0.309092 10.7746 0.361019 10.8281C0.412946 10.8816 0.484018 10.9124 0.558601 10.9135H0.563031C0.63688 10.9135 0.707769 10.8845 0.760391 10.8327C0.813013 10.7809 0.843145 10.7104 0.844281 10.6366C0.848215 10.3894 0.880057 10.1434 0.939203 9.90327C0.956514 9.83103 0.944537 9.75487 0.905886 9.69142C0.867236 9.62797 0.805053 9.5824 0.732915 9.56464C0.660776 9.54688 0.584542 9.55839 0.520859 9.59665C0.457175 9.63491 0.411216 9.69681 0.393015 9.76884L0.392945 9.76887Z"
              fill="white"/>
        <path d="M6.2154 4.67455C5.95971 4.78318 5.70753 4.89572 5.4659 5.00902C5.43246 5.02471 5.40244 5.04682 5.37755 5.07411C5.35266 5.1014 5.33338 5.13332 5.32083 5.16805C5.30827 5.20279 5.30268 5.23966 5.30437 5.27655C5.30607 5.31345 5.31501 5.34965 5.33069 5.38309C5.36237 5.45062 5.41957 5.50281 5.48972 5.52816C5.52445 5.54072 5.56132 5.54631 5.59822 5.54462C5.63511 5.54292 5.67131 5.53398 5.70475 5.5183C5.94013 5.40787 6.18594 5.29818 6.4353 5.19226C6.46961 5.17804 6.50077 5.15716 6.52697 5.13084C6.55318 5.10451 6.5739 5.07326 6.58796 5.03888C6.60202 5.0045 6.60913 4.96767 6.60888 4.93053C6.60862 4.89339 6.60102 4.85667 6.5865 4.82248C6.57198 4.78829 6.55083 4.75732 6.52427 4.73135C6.49772 4.70538 6.46628 4.68493 6.43178 4.67118C6.39727 4.65742 6.36039 4.65064 6.32325 4.65122C6.28611 4.6518 6.24946 4.65973 6.2154 4.67455Z"
              fill="white"/>
        <path d="M3.87895 6.45884C3.93097 6.45884 3.98195 6.44436 4.02619 6.417C4.24416 6.28281 4.47559 6.14876 4.7143 6.01861C4.77979 5.9829 4.82842 5.92264 4.84948 5.85108C4.87054 5.77953 4.86231 5.70253 4.82661 5.63704C4.7909 5.57155 4.73064 5.52292 4.65908 5.50186C4.58752 5.4808 4.51053 5.48903 4.44504 5.52473C4.19768 5.65963 3.95749 5.79867 3.73137 5.93807C3.6792 5.97017 3.63894 6.01843 3.61671 6.07551C3.59448 6.13259 3.59149 6.19537 3.6082 6.25431C3.62491 6.31324 3.6604 6.36511 3.70929 6.40202C3.75817 6.43894 3.81777 6.45889 3.87902 6.45884H3.87895Z"
              fill="white"/>
        <path d="M3.14247 14.1941C3.1344 14.2302 3.13352 14.2675 3.13986 14.3038C3.1462 14.3402 3.15965 14.375 3.17943 14.4062C3.19921 14.4374 3.22494 14.4644 3.25516 14.4856C3.28537 14.5069 3.31947 14.522 3.35552 14.53C3.6389 14.5932 3.92839 14.6251 4.21874 14.625C4.29334 14.625 4.36487 14.5954 4.41762 14.5426C4.47036 14.4899 4.49999 14.4184 4.49999 14.3438C4.49999 14.2692 4.47036 14.1976 4.41762 14.1449C4.36487 14.0921 4.29334 14.0625 4.21874 14.0625C3.96971 14.0626 3.72142 14.0353 3.47835 13.9811C3.40556 13.9648 3.32929 13.9781 3.2663 14.0181C3.20331 14.058 3.15877 14.1214 3.14247 14.1941Z"
              fill="white"/>
        <path d="M2.77806 6.58516C2.54849 6.75792 2.33158 6.93574 2.13347 7.1137C2.07962 7.16396 2.04764 7.23335 2.0444 7.30694C2.04116 7.38054 2.06693 7.45247 2.11616 7.50727C2.16539 7.56207 2.23416 7.59536 2.30768 7.6C2.3812 7.60463 2.4536 7.58024 2.50933 7.53206C2.69545 7.36489 2.89956 7.19748 3.11627 7.03449C3.17587 6.98964 3.21522 6.92295 3.22565 6.84909C3.23608 6.77524 3.21675 6.70026 3.1719 6.64065C3.12705 6.58105 3.06036 6.5417 2.9865 6.53127C2.91265 6.52084 2.83767 6.54017 2.77806 6.58502V6.58516Z"
              fill="white"/>
        <path d="M1.72103 7.91625C1.6629 7.86952 1.58859 7.84778 1.51444 7.85583C1.44029 7.86388 1.37237 7.90106 1.32563 7.95918C1.14699 8.18003 0.985876 8.4145 0.843742 8.66044C0.82472 8.6925 0.812264 8.72803 0.807097 8.76495C0.801929 8.80188 0.804155 8.83946 0.813643 8.87551C0.823132 8.91157 0.839694 8.94538 0.862367 8.97497C0.88504 9.00457 0.913371 9.02936 0.945713 9.04791C0.978054 9.06646 1.01376 9.07839 1.05076 9.08301C1.08775 9.08764 1.1253 9.08486 1.16121 9.07484C1.19712 9.06482 1.23068 9.04776 1.25994 9.02466C1.2892 9.00155 1.31357 8.97286 1.33164 8.94025C1.45923 8.71979 1.60381 8.50961 1.76406 8.31162C1.81078 8.25348 1.83249 8.17917 1.82442 8.10503C1.81635 8.03088 1.77916 7.96298 1.72103 7.91625Z"
              fill="white"/>
        <path d="M0.986131 11.6608C0.975692 11.6252 0.958314 11.5921 0.934998 11.5632C0.911682 11.5344 0.882889 11.5104 0.850276 11.4927C0.817664 11.4751 0.781877 11.464 0.744975 11.4602C0.708074 11.4564 0.670788 11.46 0.635263 11.4707C0.599739 11.4813 0.566679 11.4989 0.537986 11.5224C0.509293 11.546 0.485535 11.5749 0.46808 11.6076C0.450625 11.6404 0.439817 11.6762 0.436279 11.7132C0.432742 11.7501 0.436544 11.7874 0.447467 11.8228C0.531171 12.1011 0.645545 12.3692 0.788483 12.6222C0.806657 12.6544 0.830986 12.6826 0.860081 12.7054C0.889176 12.7281 0.922468 12.7449 0.958055 12.7548C0.993641 12.7647 1.03083 12.7675 1.06749 12.763C1.10415 12.7585 1.13957 12.7469 1.17172 12.7287C1.20387 12.7105 1.23213 12.6862 1.25488 12.6571C1.27764 12.628 1.29443 12.5947 1.30432 12.5591C1.3142 12.5235 1.31698 12.4863 1.3125 12.4497C1.30801 12.413 1.29635 12.3776 1.27817 12.3454C1.15575 12.1288 1.05781 11.8992 0.986131 11.6608Z"
              fill="white"/>
    </g>
    <defs>
        <clipPath id="clip0_1_1546">
            <rect width="18" height="18" fill="white"/>
        </clipPath>
    </defs>
</svg>
