<svg width="25" height="25" viewBox="0 0 32 32" fill="#004137" xmlns="http://www.w3.org/2000/svg">
    <path fill-rule="evenodd" clip-rule="evenodd"
          d="M9.72404 2.69775C6.87057 2.69775 4.55737 5.01095 4.55737 7.86442V23.3644C4.55737 26.2178 6.87057 28.5311 9.72404 28.5311H22.6407C25.4941 28.5311 27.8074 26.2178 27.8074 23.3644V7.86442C27.8074 5.01095 25.4941 2.69775 22.6407 2.69775H9.72404ZM11.0157 21.104C10.4807 21.104 10.047 21.5377 10.047 22.0728C10.047 22.6078 10.4807 23.0415 11.0157 23.0415H16.1824C16.7174 23.0415 17.1511 22.6078 17.1511 22.0728C17.1511 21.5377 16.7174 21.104 16.1824 21.104H11.0157ZM10.047 15.6144C10.047 15.0794 10.4807 14.6457 11.0157 14.6457H21.349C21.884 14.6457 22.3178 15.0794 22.3178 15.6144C22.3178 16.1494 21.884 16.5832 21.349 16.5832H11.0157C10.4807 16.5832 10.047 16.1494 10.047 15.6144ZM11.0157 8.18734C10.4807 8.18734 10.047 8.62107 10.047 9.15609C10.047 9.69111 10.4807 10.1248 11.0157 10.1248H21.349C21.884 10.1248 22.3178 9.69111 22.3178 9.15609C22.3178 8.62107 21.884 8.18734 21.349 8.18734H11.0157Z"
    />
</svg>
