<svg width="21" height="27" viewBox="0 0 21 27" fill="none" xmlns="http://www.w3.org/2000/svg">
<g filter="url(#filter0_d_1_90)">
<path d="M4.81958 15.1911H6.1332L4.47994 21.145C4.45113 21.2445 4.44541 21.3495 4.46323 21.4516C4.48105 21.5538 4.52192 21.6502 4.58258 21.7333C4.64323 21.8163 4.722 21.8837 4.81258 21.93C4.90317 21.9763 5.00306 22.0003 5.10428 22C5.19082 22.0004 5.27656 21.9829 5.35636 21.9486C5.43617 21.9143 5.50842 21.8639 5.56879 21.8003L11.7922 15.401C11.8913 15.3001 11.9589 15.1712 11.9863 15.0307C12.0137 14.8903 11.9998 14.7447 11.9462 14.6124C11.8927 14.4801 11.8019 14.3672 11.6856 14.2879C11.5692 14.2086 11.4325 14.1666 11.2928 14.1672H10.069L11.5675 8.75085C11.6237 8.54646 11.633 8.33151 11.5948 8.12281C11.5565 7.9141 11.4717 7.71729 11.3469 7.54776C11.2221 7.37823 11.0608 7.24058 10.8755 7.14555C10.6902 7.05053 10.486 7.00071 10.2788 7H7.03225C6.7411 7.00152 6.45825 7.09958 6.22598 7.27952C5.9937 7.45946 5.82448 7.71161 5.74361 7.99829L4.03042 14.1416C3.99645 14.265 3.99084 14.3947 4.01404 14.5207C4.03723 14.6467 4.08859 14.7654 4.16409 14.8676C4.23959 14.9698 4.33717 15.0526 4.44917 15.1096C4.56117 15.1667 4.68454 15.1963 4.80959 15.1962L4.81958 15.1911Z" fill="white"/>
</g>
<defs>
<filter id="filter0_d_1_90" x="0.682446" y="0.364892" width="19.6114" height="26.6114" filterUnits="userSpaceOnUse" color-interpolation-filters="sRGB">
<feFlood flood-opacity="0" result="BackgroundImageFix"/>
<feColorMatrix in="SourceAlpha" type="matrix" values="0 0 0 0 0 0 0 0 0 0 0 0 0 0 0 0 0 0 127 0" result="hardAlpha"/>
<feOffset dx="2.48817" dy="-0.829389"/>
<feGaussianBlur stdDeviation="2.90286"/>
<feComposite in2="hardAlpha" operator="out"/>
<feColorMatrix type="matrix" values="0 0 0 0 1 0 0 0 0 1 0 0 0 0 1 0 0 0 0.69 0"/>
<feBlend mode="normal" in2="BackgroundImageFix" result="effect1_dropShadow_1_90"/>
<feBlend mode="normal" in="SourceGraphic" in2="effect1_dropShadow_1_90" result="shape"/>
</filter>
</defs>
</svg>
